<mxfile host="app.diagrams.net" agent="Mozilla/5.0 (Windows NT 10.0; Win64; x64) AppleWebKit/537.36 (KHTML, like Gecko) Chrome/131.0.0.0 Safari/537.36" version="26.0.7">
  <diagram name="第 1 页" id="89vJBJVzQ6p3oRt0uOno">
    <mxGraphModel dx="995" dy="663" grid="1" gridSize="10" guides="1" tooltips="1" connect="0" arrows="1" fold="1" page="1" pageScale="1" pageWidth="827" pageHeight="1169" math="1" shadow="0">
      <root>
        <mxCell id="0" />
        <mxCell id="1" parent="0" />
        <mxCell id="BDlRwHxG_kEXWN9z024I-1" value="&lt;span style=&quot;font-size: 15px;&quot;&gt;&lt;b&gt;Robert Gates&lt;/b&gt;&amp;nbsp;says he questions Hillary Clinton &#39; s judgment in using a private email server&lt;/span&gt;" style="rounded=1;whiteSpace=wrap;html=1;" vertex="1" parent="1">
          <mxGeometry x="139" y="555" width="550" height="60" as="geometry" />
        </mxCell>
        <mxCell id="BDlRwHxG_kEXWN9z024I-2" value="" style="rounded=0;whiteSpace=wrap;html=1;" vertex="1" parent="1">
          <mxGeometry x="139" y="310" width="551" height="170" as="geometry" />
        </mxCell>
        <mxCell id="BDlRwHxG_kEXWN9z024I-3" value="$$\text{e}_{\text{&amp;lt;s&amp;gt;}}$$" style="rounded=0;whiteSpace=wrap;html=1;fontSize=15;aspect=fixed;fillColor=#d5e8d4;strokeColor=#82b366;" vertex="1" parent="1">
          <mxGeometry x="160" y="130" width="40" height="20" as="geometry" />
        </mxCell>
        <mxCell id="BDlRwHxG_kEXWN9z024I-4" value="$$\text{e}_{\text{\$T\$}}$$" style="rounded=0;whiteSpace=wrap;html=1;fontSize=15;aspect=fixed;fillColor=#d5e8d4;strokeColor=#82b366;" vertex="1" parent="1">
          <mxGeometry x="160" y="180" width="40" height="20" as="geometry" />
        </mxCell>
        <mxCell id="BDlRwHxG_kEXWN9z024I-8" value="$$\text{e}_{\text{Into}}$$" style="rounded=0;whiteSpace=wrap;html=1;fontSize=15;aspect=fixed;fillColor=#d5e8d4;strokeColor=#82b366;" vertex="1" parent="1">
          <mxGeometry x="160" y="230" width="40" height="20" as="geometry" />
        </mxCell>
        <mxCell id="BDlRwHxG_kEXWN9z024I-9" value="$$\text{e}_{\text{Rips}}$$" style="rounded=0;whiteSpace=wrap;html=1;fontSize=15;aspect=fixed;fillColor=#d5e8d4;strokeColor=#82b366;" vertex="1" parent="1">
          <mxGeometry x="300" y="130" width="40" height="20" as="geometry" />
        </mxCell>
        <mxCell id="BDlRwHxG_kEXWN9z024I-11" value="$$\text{e}_{\text{Leadership}}$$" style="rounded=0;whiteSpace=wrap;html=1;fontSize=15;aspect=fixed;fillColor=#d5e8d4;strokeColor=#82b366;" vertex="1" parent="1">
          <mxGeometry x="300" y="180" width="40" height="20" as="geometry" />
        </mxCell>
      </root>
    </mxGraphModel>
  </diagram>
</mxfile>
